<svg width="681" height="621" viewBox="0 0 681 621" fill="none" xmlns="http://www.w3.org/2000/svg">
<path fill-rule="evenodd" clip-rule="evenodd" d="M135.48 1.09257C126.795 2.74857 118.761 7.31657 112.203 14.3276C104.343 22.7306 101.122 29.6366 99.8922 40.7266C99.2902 46.1506 99.0302 150.345 99.1992 317.918L99.4702 586.418L101.714 592.367C106.197 604.249 117.808 615.326 129.835 619.193C134.841 620.803 148.603 620.918 335.903 620.918C516.317 620.918 537.156 620.757 542.038 619.33C555.759 615.318 567.116 603.345 569.937 589.918C570.762 585.992 571.004 566.012 570.782 520.086L570.47 455.753L567.204 452.836C562.879 448.972 557.41 448.836 553.074 452.484L550.024 455.05L549.747 521.734C549.436 596.656 550.06 590.812 541.758 596.565L537.641 599.418H335.398H133.156L129.313 596.329C127.199 594.629 124.345 591.254 122.97 588.829L120.47 584.418L120.269 315.418C120.147 152.37 120.436 44.0556 121.003 40.4206C122.253 32.4036 125.957 27.1916 132.906 23.6676L138.329 20.9176H295.649H452.97V50.9016V80.8856L455.887 84.1516L458.804 87.4176L478.137 88.0746C488.77 88.4356 508.832 88.7726 522.72 88.8246L547.97 88.9176V92.9836C547.97 100.436 551.97 104.832 558.797 104.885C562.271 104.911 563.7 104.342 566.047 101.995C568.664 99.3766 568.97 98.4066 568.97 92.7166C568.97 84.9946 568.296 83.9336 558.193 75.7356C553.945 72.2896 538.307 59.1086 523.441 46.4436C490.147 18.0806 472.881 3.95857 468.697 1.66757C465.688 0.0195708 456.001 -0.0754296 302.986 0.0295704C204.828 0.0965704 138.494 0.518574 135.48 1.09257ZM485.648 42.0236C491.482 47.0316 500.714 54.6816 506.164 59.0236L516.073 66.9176H495.021H473.97V49.9176C473.97 40.5676 474.211 32.9176 474.505 32.9176C474.799 32.9176 479.813 37.0156 485.648 42.0236ZM600.113 36.4506C591.223 43.9316 596.415 57.9176 608.083 57.9176C613.053 57.9176 618.629 53.2546 619.553 48.3246C621.578 37.5316 608.397 29.4806 600.113 36.4506ZM55.9702 54.6236C53.1852 55.6416 50.0352 59.1926 48.9202 62.5686C47.4252 67.0976 48.5202 71.3136 52.1272 74.9206C57.5612 80.3546 68.0962 78.3866 71.4542 71.3106C73.3372 67.3416 73.3492 65.7606 71.5302 61.4076C69.1782 55.7786 61.7142 52.5246 55.9702 54.6236ZM189.768 58.8486C181.433 61.5136 175.806 65.1606 170.005 71.6576C163.473 78.9736 159.332 87.4456 157.782 96.6666C154.46 116.429 165.517 136.726 184.724 146.119C191.272 149.321 191.837 149.417 203.97 149.395C215.873 149.373 216.79 149.221 223.173 146.229C234.953 140.706 243.686 130.747 248 117.918C249.841 112.444 250.117 109.826 249.749 101.333C249.374 92.6546 248.875 90.3126 246.176 84.5446C242.64 76.9876 233.846 67.1026 227.184 63.1976C216.538 56.9566 201.243 55.1796 189.768 58.8486ZM286.315 72.8486C280.74 76.2486 280.653 84.7896 286.147 89.4126L289.177 91.9626L350.008 91.6896L410.84 91.4176L413.905 88.4806C418.966 83.6306 418.001 75.5366 411.99 72.4276C409.48 71.1296 400.656 70.9186 349.27 70.9216C292.026 70.9246 289.335 71.0076 286.315 72.8486ZM215.09 80.4896C223.068 84.5126 227.87 91.7266 228.706 100.942C230.873 124.845 202.892 138.261 186.356 121.247C180.591 115.315 178.636 109.838 179.134 101.014C179.462 95.2226 180.047 93.2736 182.5 89.8056C190.973 77.8296 202.999 74.3916 215.09 80.4896ZM614.598 85.9666C603.05 88.8606 587.676 101.112 583.384 110.841C582.395 113.083 581.334 114.926 581.028 114.935C580.721 114.945 577.381 115.607 573.606 116.407C561.265 119.022 555.535 123.769 545.776 139.465C542.714 144.389 534.193 157.738 526.839 169.13C511.47 192.94 482.274 238.514 472.521 253.918C468.864 259.693 464.283 266.413 462.341 268.851C459.178 272.822 458.843 273.813 459.137 278.351C459.459 283.323 459.195 283.857 445.038 306.918C426.661 336.852 423.427 341.638 421.072 342.386C419.238 342.968 412.427 353.43 390.456 389.418C385.083 398.218 376.926 411.375 372.329 418.656C367.476 426.342 363.97 432.968 363.97 434.454C363.97 435.924 365.074 438.036 366.562 439.415L369.153 441.817L363.685 450.658C352.756 468.326 353.004 467.507 350.414 494.368C348.234 516.968 345.526 549.187 344.263 567.535C343.758 574.874 343.907 575.855 345.812 577.76C350.433 582.381 352.244 581.897 373.72 570.295C377.158 568.437 382.783 565.399 386.22 563.543C389.658 561.686 398.77 556.793 406.47 552.668C437.69 535.945 448.555 529.729 450.233 527.626C451.202 526.412 455.644 519.653 460.103 512.607C466.486 502.521 468.557 499.948 469.84 500.51C472.936 501.864 477.749 502.106 479.797 501.011C480.927 500.406 486.543 492.15 492.276 482.664C520 436.797 530.815 419.05 533.514 415C535.803 411.565 536.459 409.452 536.464 405.5C536.469 401.045 537.222 399.185 542.568 390.418C545.922 384.918 553.217 372.709 558.779 363.286C566.457 350.278 569.47 346.009 571.299 345.55C573.009 345.121 575.352 342.19 579.384 335.432C582.507 330.199 585.446 325.918 585.914 325.918C586.383 325.918 589.4 327.309 592.618 329.009C597.287 331.476 599.326 332.006 602.706 331.634C610.82 330.739 610.092 331.646 631.393 295.918C638.115 284.643 648.288 267.768 654 258.418C668.977 233.902 671.287 229.123 670.413 224.465C669.454 219.353 664.853 214.393 657.739 210.802C654.492 209.162 651.978 207.506 652.153 207.12C652.327 206.734 654.612 202.143 657.23 196.918C662.923 185.556 664.292 179.25 663.018 170.252L662.093 163.718L666.573 157.568C672.302 149.703 674.356 142.827 674.233 131.918C674.005 111.512 662.674 94.9316 644.089 87.8096C637.691 85.3586 621.151 84.3246 614.598 85.9666ZM635.175 107.472C651.117 112.904 657.961 132.357 648.71 145.942C644.452 152.193 644.953 152.331 623.343 138.925C612.413 132.145 602.861 126.044 602.117 125.369C599.853 123.313 604.566 115.238 610.363 111.243C618.269 105.795 626.556 104.535 635.175 107.472ZM37.3372 112.279C35.2752 114.052 34.4532 115.855 34.0312 119.529L33.4702 124.418L27.4742 124.725C20.6562 125.075 17.5742 127.15 16.5942 132.05C15.8602 135.72 18.0722 141.367 20.8202 142.838C21.9302 143.432 25.1182 143.918 27.9042 143.918H32.9702V149.018C32.9702 153.521 33.3832 154.531 36.4972 157.645C39.6252 160.773 40.4432 161.104 43.7472 160.579C46.1662 160.195 48.4642 158.884 50.3092 156.838C52.7592 154.119 53.1012 153.019 52.8092 148.802L52.4702 143.917H59.1312C65.3422 143.918 65.9672 143.71 68.3812 140.841C72.0032 136.537 71.8782 131.672 68.0472 127.841C65.4582 125.252 64.4302 124.918 59.0472 124.918H52.9702V121.141C52.9702 117.427 51.0632 113.601 48.0162 111.2C45.4542 109.181 40.3372 109.698 37.3372 112.279ZM285.37 122.318C282.922 124.766 281.97 126.613 281.97 128.914C281.97 132.912 284.561 137.41 287.682 138.833C289.271 139.557 303.723 139.918 331.094 139.918H372.124L375.047 136.995C377.44 134.602 377.97 133.228 377.97 129.418C377.97 125.608 377.44 124.234 375.047 121.841L372.124 118.918H330.447H288.77L285.37 122.318ZM422.327 119.888C418.982 121.272 416.97 124.963 416.97 129.717C416.97 133.197 417.557 134.659 419.893 136.995L422.816 139.918H453.47H484.124L487.047 136.995C490.941 133.101 491.171 126.427 487.558 122.224L485.146 119.418L454.808 119.21C438.122 119.095 423.506 119.401 422.327 119.888ZM583.26 140.06C585.575 141.239 596.695 147.714 607.97 154.45C619.245 161.186 631.618 168.455 635.465 170.603C639.312 172.751 642.605 175.263 642.783 176.185C643.107 177.866 623.133 215.713 600.704 255.918C590.375 274.434 563.491 320.691 562.419 321.792C561.992 322.231 562.913 322.778 528.97 301.921C514.395 292.964 499.545 283.875 495.97 281.723C492.395 279.571 488.39 276.995 487.071 275.997L484.672 274.184L506.679 239.801C518.784 220.89 534.658 196.193 541.955 184.918C549.252 173.643 558.57 159.136 562.661 152.68C566.751 146.224 571.07 140.261 572.257 139.43C575.216 137.357 578.294 137.533 583.26 140.06ZM167.47 172.634C161.79 174.008 158.9 180.421 161.335 186.248C164.352 193.469 151.779 192.966 322.025 192.677L475.143 192.418L477.557 189.612C480.425 186.278 480.783 180.523 478.339 177.035C474.589 171.68 481.848 171.909 319.752 172.034C237.097 172.098 168.57 172.368 167.47 172.634ZM583.98 182.207C581.371 183.527 578.259 188.301 546.031 240.418C527.933 269.685 526.889 271.642 527.354 275.418C527.707 278.283 528.756 280.231 531.052 282.282C533.838 284.772 534.84 285.08 538.731 284.641C541.611 284.317 544.045 283.296 545.561 281.778C546.857 280.48 552.578 271.768 558.275 262.418C576.938 231.789 590.09 210.539 594.792 203.418C598.534 197.75 599.401 195.609 599.346 192.167C599.269 187.312 597.144 184.351 592.252 182.28C588.307 180.61 587.156 180.6 583.98 182.207ZM41.2792 193.032C36.8572 194.297 34.6312 198.022 32.4492 207.811C29.8302 219.558 28.0272 221.899 19.4532 224.693C5.65218 229.188 3.84819 230.071 1.88919 233.283C-0.836813 237.753 -0.594812 243.093 2.49919 246.77C4.41619 249.048 7.38018 250.533 14.7282 252.899C20.0632 254.617 25.2732 256.787 26.3052 257.72C29.0342 260.188 31.4572 265.57 32.9212 272.418C34.6242 280.382 36.3682 283.555 40.1082 285.49C47.5472 289.336 53.7652 284.562 56.7892 272.684C59.2172 263.147 61.7092 258.201 64.9712 256.447C66.3462 255.708 71.5162 253.824 76.4612 252.261C84.1042 249.844 85.7912 248.908 87.7112 246.02C90.3402 242.065 90.5882 238.014 88.4532 233.885C86.7002 230.495 83.8282 228.847 75.5002 226.451C62.3862 222.68 59.9572 220.169 57.3582 207.7C56.5512 203.831 55.2722 199.469 54.5162 198.006C52.2782 193.679 46.5462 191.525 41.2792 193.032ZM46.9432 226.321C48.4972 231.873 50.9852 234.249 58.4032 237.267C64.6782 239.82 64.6692 240.126 58.2652 241.843C52.4632 243.399 48.2432 247.233 46.8192 252.242C45.0222 258.567 44.3172 258.623 42.5612 252.584C40.6752 246.095 38.0072 243.625 30.9262 241.81C28.1792 241.106 26.0652 240.133 26.2272 239.646C26.3892 239.16 28.8742 237.966 31.7482 236.993C39.4342 234.391 41.6082 231.901 43.4182 223.627C44.2232 219.946 45.4122 220.855 46.9432 226.321ZM644.244 228.327C646.274 229.868 648.399 225.942 621.459 270.418C612.798 284.718 604.307 298.772 602.59 301.648C599.746 306.416 596.97 308.498 596.97 305.864C596.97 305.284 600.488 298.867 604.788 291.603C609.088 284.339 619.028 266.813 626.876 252.657C634.725 238.501 641.444 226.932 641.808 226.95C642.172 226.967 643.268 227.587 644.244 228.327ZM167.254 237.619C164.28 238.195 159.97 243.476 159.97 246.544C159.97 250.577 162.856 254.972 166.504 256.497C169.385 257.7 189.756 257.918 299.47 257.918C438.935 257.918 434.201 258.091 436.99 252.882C438.503 250.054 438.503 244.782 436.99 241.954C434.197 236.736 439.013 236.908 299.252 237.054C227.872 237.129 168.473 237.383 167.254 237.619ZM214.47 289.879C187.52 290.176 164.904 290.784 164.213 291.231C163.521 291.679 162.244 293.421 161.374 295.103C159.197 299.313 160.265 304.147 164.081 307.358L167.123 309.918H288.912C410.047 309.918 410.714 309.907 413.298 307.875C418.577 303.722 417.624 294.432 411.579 291.121C408.734 289.562 402.324 289.415 335.97 289.379C296.095 289.358 241.42 289.583 214.47 289.879ZM485.13 300.022C489.167 302.279 497.42 307.174 503.47 310.9C509.52 314.626 522.011 322.277 531.228 327.904C540.445 333.531 548.204 338.488 548.472 338.921C548.959 339.709 543.63 348.756 526.682 375.918C521.706 383.893 517.565 390.525 517.48 390.657C517.323 390.901 451.763 351.847 446.66 348.469C445.115 347.447 444.275 346.342 444.794 346.014C445.313 345.686 448.991 340.018 452.966 333.418C464.274 314.646 476.322 295.918 477.091 295.918C477.476 295.918 481.094 297.765 485.13 300.022ZM54.0802 307.314C49.1982 310.019 47.5342 317.241 50.4802 322.938C52.4272 326.703 55.1082 328.085 60.4682 328.085C67.7882 328.085 71.9702 323.789 71.9702 316.271C71.9702 310.836 66.6422 305.906 60.8202 305.953C58.4282 305.973 55.3952 306.585 54.0802 307.314ZM649.97 332.62C647.871 333.698 645.728 335.937 644.617 338.211C638.723 350.277 654.45 361.284 663.975 351.759C673.69 342.044 662.198 326.339 649.97 332.62ZM164.72 341.998C162.552 343.261 159.97 348.109 159.97 350.918C159.97 354.605 162.987 359.027 166.504 360.497C171.497 362.583 369.342 362.625 374.33 360.541C377.399 359.259 380.97 354.083 380.97 350.918C380.97 348.267 377.725 343.127 375.375 342.057C372.042 340.538 167.324 340.481 164.72 341.998ZM38.4352 348.832C35.1572 350.222 33.5732 352.831 33.0032 357.781L32.4702 362.418L27.4702 362.679C20.3142 363.053 18.2882 363.661 15.9982 366.119C13.5912 368.702 13.3452 373.809 15.4332 377.846C17.2782 381.414 18.6432 381.918 26.4582 381.918H32.7822L33.4712 387.168C34.3672 393.992 36.1582 396.675 40.3412 397.46C47.3932 398.783 53.1022 392.347 51.4692 384.915L50.8112 381.918H58.7162C65.6252 381.918 66.8862 381.634 68.7222 379.668C72.8702 375.224 72.5192 369.371 67.8432 365.014C65.9842 363.282 64.3222 362.918 58.2812 362.918H50.9702V358.474C50.9702 351.192 44.5382 346.244 38.4352 348.832ZM444.167 372.277C450.933 376.324 468.704 386.896 483.657 395.769L510.844 411.903L505.657 420.19C502.804 424.748 493.95 439.376 485.982 452.698C478.014 466.019 471.219 476.918 470.883 476.918C470.272 476.918 453.554 467.077 412.804 442.732L391.139 429.788L396.804 420.086C408.317 400.371 430.354 364.918 431.097 364.918C431.518 364.918 437.4 368.229 444.167 372.277ZM620.585 377.006C617.332 379.565 614.97 383.945 614.97 387.418C614.97 393.843 620.891 399.918 627.155 399.918C637.299 399.918 643.847 390.383 639.49 381.957C637.038 377.215 633.279 374.918 627.97 374.918C624.687 374.918 622.427 375.557 620.585 377.006ZM166.278 391.928C161.327 393.922 159.192 401.228 162.018 406.508C165.011 412.101 162.027 411.918 250.405 411.918H331.938L335.204 409C338.008 406.495 338.47 405.422 338.47 401.418C338.47 397.414 338.008 396.341 335.204 393.836L331.938 390.918L250.204 390.981C205.25 391.016 167.484 391.442 166.278 391.928ZM631 433.197C627.161 435.14 624.323 440.233 622.954 447.64C620.698 459.838 618.647 461.912 604.476 466.331C592.812 469.967 588.897 474.386 590.372 482.249C591.277 487.071 595.703 490.788 602.588 492.509C617.503 496.236 619.509 498.038 622.533 510.418C625.562 522.823 628.978 526.918 636.295 526.918C642.693 526.918 645.37 523.421 648.914 510.431C652.086 498.807 654.087 496.644 664.179 493.928C678.244 490.143 680.97 487.82 680.97 479.619C680.97 472.963 677.729 469.803 667.872 466.85C658.666 464.093 652.64 460.684 651.136 457.384C650.502 455.992 649.338 451.758 648.549 447.976C646.731 439.258 644.702 435.348 641.003 433.435C637.456 431.601 634.303 431.526 631 433.197ZM34.4252 450.373C32.4212 452.377 31.9702 453.825 31.9702 458.263V463.699L24.3622 464.084C17.5172 464.429 16.5142 464.747 14.3622 467.249C10.9322 471.236 11.1412 476.243 14.8932 479.995C17.5732 482.675 18.4052 482.918 24.8932 482.918H31.9702V487.282C31.9702 499.956 48.2732 500.281 49.6982 487.635L50.2302 482.918H56.6772C62.4692 482.918 63.4212 482.621 66.0472 479.995C69.3092 476.733 69.6362 474.448 67.5552 469.466C65.7032 465.034 63.3862 463.918 56.0362 463.918H49.9702V459.868C49.9702 455.206 47.8112 450.439 45.0252 448.948C41.6332 447.132 37.0492 447.748 34.4252 450.373ZM407.97 464.915C413.195 468.022 424.783 474.757 433.72 479.881C442.658 485.005 449.97 489.344 449.97 489.524C449.97 490.267 439.728 505.918 439.242 505.918C438.431 505.918 428.892 500.436 413.623 491.195C406.006 486.586 394.981 480.102 389.123 476.787C383.264 473.471 378.101 470.403 377.651 469.969C376.958 469.302 382.987 458.172 386.211 454.166C387.298 452.815 389.208 453.759 407.97 464.915ZM164.53 456.049C160.758 459.017 159.718 462.268 161.009 467.061C161.731 469.745 163.096 471.663 165.271 473.052C168.444 475.078 169.105 475.089 245.297 474.467C302.425 474 322.616 473.531 324.047 472.638C325.105 471.977 326.697 469.905 327.585 468.033C328.92 465.221 329 463.961 328.047 460.78C325.887 453.571 330.133 453.918 244.155 453.918H167.24L164.53 456.049ZM638.608 467.37C640.585 472.552 643.494 474.959 650.827 477.48C652.831 478.169 654.391 479.111 654.295 479.575C654.199 480.039 651.949 481.029 649.295 481.775C646.641 482.522 643.635 483.872 642.614 484.775C640.464 486.678 637.548 492.196 636.593 496.168C635.639 500.135 634.318 499.549 633.692 494.88C632.716 487.607 627.687 482.722 619.804 481.39C617.695 481.034 615.97 480.356 615.97 479.884C615.97 479.412 618.685 478.035 622.004 476.825C629.262 474.179 632.303 470.866 634.012 463.742C634.996 459.642 635.444 458.897 636 460.434C636.395 461.525 637.569 464.646 638.608 467.37ZM388.47 501.422C395.07 505.389 404.858 511.217 410.22 514.374C415.582 517.53 419.97 520.251 419.97 520.42C419.97 520.972 367.531 549.918 366.532 549.918C366.406 549.918 369.52 517.544 371.025 503.195C372.179 492.205 372.247 491.995 374.336 493.091C375.51 493.706 381.87 497.455 388.47 501.422ZM497.733 526.483C496.227 527.3 494.314 529.285 493.483 530.894C487.49 542.482 501.592 553.457 511.404 544.842C517.416 539.563 516.985 532.221 510.355 527.006C507.229 524.547 501.721 524.319 497.733 526.483ZM166.47 529.863C158.223 533.239 158.556 545.742 166.97 548.612C169.432 549.451 181.937 549.822 209.143 549.862L247.817 549.918L250.859 547.358C256.44 542.662 255.899 534.674 249.745 530.922C246.615 529.014 244.745 528.928 207.47 528.985C186.02 529.018 167.57 529.413 166.47 529.863ZM54.9702 539.624C51.9702 540.721 48.9252 544.373 47.9302 548.066C44.3682 561.293 64.2652 568.917 70.5632 556.738C72.5442 552.907 71.9422 546.664 69.3052 543.702C65.9722 539.96 59.2682 538.053 54.9702 539.624ZM603.303 554.026C598.391 555.432 594.97 560.181 594.97 565.595C594.97 569.384 595.509 570.657 598.291 573.439C606.587 581.735 618.97 576.736 618.97 565.09C618.97 559.025 615.142 554.97 607.97 553.439C607.145 553.263 605.045 553.527 603.303 554.026Z" fill="#1E90FF"/>
</svg>
