<svg width="518" height="518" viewBox="0 0 518 518" fill="none" xmlns="http://www.w3.org/2000/svg">
<path d="M4.60953 266.466C2.95668 210.147 20.0395 154.872 53.18 109.306C86.3205 63.7397 133.645 30.4593 187.734 14.6818C241.823 -1.09564 299.618 1.52195 352.06 22.1242C404.501 42.7265 448.623 80.1486 477.509 128.524" stroke="black" stroke-width="9"/>
<path d="M57.577 353.28C50.665 353.28 44.777 352.171 39.913 349.952C35.1343 347.733 31.465 344.875 28.905 341.376C26.345 337.877 24.9797 334.165 24.809 330.24C24.809 329.557 25.065 328.96 25.577 328.448C26.089 327.936 26.729 327.68 27.497 327.68H30.057C30.9103 327.68 31.5503 327.936 31.977 328.448C32.489 328.96 32.7877 329.557 32.873 330.24C33.2143 332.629 34.281 335.019 36.073 337.408C37.865 339.712 40.5103 341.675 44.009 343.296C47.5077 344.832 52.0303 345.6 57.577 345.6C65.9397 345.6 72.041 344.107 75.881 341.12C79.721 338.048 81.641 333.952 81.641 328.832C81.641 325.419 80.617 322.688 78.569 320.64C76.6063 318.507 73.577 316.629 69.481 315.008C65.385 313.301 60.137 311.424 53.737 309.376C47.6783 307.413 42.6863 305.408 38.761 303.36C34.8357 301.227 31.9343 298.667 30.057 295.68C28.265 292.693 27.369 288.853 27.369 284.16C27.369 279.808 28.521 275.925 30.825 272.512C33.129 269.013 36.457 266.24 40.809 264.192C45.2463 262.144 50.6223 261.12 56.937 261.12C61.9717 261.12 66.3663 261.803 70.121 263.168C73.8757 264.533 76.9903 266.368 79.465 268.672C81.9397 270.891 83.817 273.323 85.097 275.968C86.377 278.528 87.0597 281.045 87.145 283.52C87.145 284.117 86.9317 284.715 86.505 285.312C86.0783 285.824 85.3957 286.08 84.457 286.08H81.897C81.4703 286.08 80.9157 285.909 80.233 285.568C79.6357 285.227 79.2517 284.544 79.081 283.52C78.569 279.253 76.3077 275.755 72.297 273.024C68.3717 270.208 63.2517 268.8 56.937 268.8C50.6223 268.8 45.4597 270.037 41.449 272.512C37.4383 274.987 35.433 278.869 35.433 284.16C35.433 287.573 36.329 290.389 38.121 292.608C39.913 294.741 42.729 296.661 46.569 298.368C50.409 299.989 55.3583 301.781 61.417 303.744C67.817 305.792 73.1077 307.84 77.289 309.888C81.4703 311.936 84.585 314.453 86.633 317.44C88.681 320.341 89.705 324.139 89.705 328.832C89.705 334.037 88.3823 338.475 85.737 342.144C83.177 345.728 79.5077 348.501 74.729 350.464C69.9503 352.341 64.233 353.28 57.577 353.28ZM118.693 352C117.584 352 116.73 351.744 116.133 351.232C115.536 350.72 115.024 349.909 114.597 348.8L96.549 289.408C96.3783 288.896 96.293 288.427 96.293 288C96.293 287.317 96.549 286.72 97.061 286.208C97.573 285.696 98.1703 285.44 98.853 285.44H101.285C102.138 285.44 102.778 285.696 103.205 286.208C103.717 286.635 104.016 287.019 104.101 287.36L119.845 340.608L136.613 288C136.784 287.488 137.125 286.933 137.637 286.336C138.149 285.739 138.96 285.44 140.069 285.44H142.629C143.738 285.44 144.549 285.739 145.061 286.336C145.658 286.933 146 287.488 146.085 288L162.853 340.608L178.597 287.36C178.682 287.019 178.938 286.635 179.365 286.208C179.877 285.696 180.56 285.44 181.413 285.44H183.845C184.528 285.44 185.125 285.696 185.637 286.208C186.149 286.72 186.405 287.317 186.405 288C186.405 288.427 186.32 288.896 186.149 289.408L168.101 348.8C167.76 349.909 167.29 350.72 166.693 351.232C166.096 351.744 165.2 352 164.005 352H161.829C160.72 352 159.781 351.744 159.013 351.232C158.33 350.72 157.818 349.909 157.477 348.8L141.349 298.368L125.221 348.8C124.88 349.909 124.368 350.72 123.685 351.232C123.002 351.744 122.064 352 120.869 352H118.693ZM199.734 352C198.881 352 198.198 351.744 197.686 351.232C197.174 350.72 196.918 350.037 196.918 349.184V288.256C196.918 287.403 197.174 286.72 197.686 286.208C198.198 285.696 198.881 285.44 199.734 285.44H201.91C202.763 285.44 203.446 285.696 203.958 286.208C204.47 286.72 204.726 287.403 204.726 288.256V349.184C204.726 350.037 204.47 350.72 203.958 351.232C203.446 351.744 202.763 352 201.91 352H199.734ZM198.326 271.744C197.473 271.744 196.79 271.488 196.278 270.976C195.766 270.464 195.51 269.781 195.51 268.928V264.064C195.51 263.211 195.766 262.528 196.278 262.016C196.79 261.419 197.473 261.12 198.326 261.12H203.19C204.043 261.12 204.726 261.419 205.238 262.016C205.835 262.528 206.134 263.211 206.134 264.064V268.928C206.134 269.781 205.835 270.464 205.238 270.976C204.726 271.488 204.043 271.744 203.19 271.744H198.326ZM234.506 352C233.653 352 232.97 351.744 232.458 351.232C231.946 350.72 231.69 350.037 231.69 349.184V292.864H220.298C219.445 292.864 218.762 292.608 218.25 292.096C217.738 291.584 217.482 290.901 217.482 290.048V288.256C217.482 287.403 217.738 286.72 218.25 286.208C218.762 285.696 219.445 285.44 220.298 285.44H231.69V278.144C231.69 274.304 232.202 270.805 233.226 267.648C234.335 264.491 236.255 261.973 238.986 260.096C241.802 258.219 245.813 257.28 251.018 257.28H257.674C258.527 257.28 259.21 257.536 259.722 258.048C260.234 258.56 260.49 259.243 260.49 260.096V261.888C260.49 262.741 260.234 263.424 259.722 263.936C259.21 264.448 258.527 264.704 257.674 264.704H251.018C246.495 264.704 243.423 265.941 241.802 268.416C240.266 270.805 239.498 274.261 239.498 278.784V285.44H256.394C257.247 285.44 257.93 285.696 258.442 286.208C258.954 286.72 259.21 287.403 259.21 288.256V290.048C259.21 290.901 258.954 291.584 258.442 292.096C257.93 292.608 257.247 292.864 256.394 292.864H239.498V349.184C239.498 350.037 239.242 350.72 238.73 351.232C238.218 351.744 237.535 352 236.682 352H234.506ZM293.943 352C289.506 352 286.007 351.061 283.447 349.184C280.887 347.307 279.095 344.747 278.071 341.504C277.047 338.261 276.535 334.635 276.535 330.624V292.864H266.551C265.698 292.864 265.015 292.608 264.503 292.096C263.991 291.584 263.735 290.901 263.735 290.048V288.256C263.735 287.403 263.991 286.72 264.503 286.208C265.015 285.696 265.698 285.44 266.551 285.44H276.535V263.936C276.535 263.083 276.791 262.4 277.303 261.888C277.815 261.376 278.498 261.12 279.351 261.12H281.527C282.38 261.12 283.063 261.376 283.575 261.888C284.087 262.4 284.343 263.083 284.343 263.936V285.44H300.215C301.068 285.44 301.751 285.696 302.263 286.208C302.775 286.72 303.031 287.403 303.031 288.256V290.048C303.031 290.901 302.775 291.584 302.263 292.096C301.751 292.608 301.068 292.864 300.215 292.864H284.343V330.112C284.343 334.635 285.068 338.176 286.519 340.736C288.055 343.296 290.743 344.576 294.583 344.576H301.495C302.348 344.576 303.031 344.832 303.543 345.344C304.055 345.856 304.311 346.539 304.311 347.392V349.184C304.311 350.037 304.055 350.72 303.543 351.232C303.031 351.744 302.348 352 301.495 352H293.943ZM382.543 353.28C374.778 353.28 368.42 351.787 363.471 348.8C358.607 345.728 354.98 341.589 352.591 336.384C350.202 331.179 348.879 325.248 348.623 318.592C348.538 315.093 348.495 311.339 348.495 307.328C348.495 303.317 348.538 299.477 348.623 295.808C348.879 289.152 350.202 283.221 352.591 278.016C354.98 272.725 358.607 268.587 363.471 265.6C368.42 262.613 374.778 261.12 382.543 261.12C388.602 261.12 393.764 261.973 398.031 263.68C402.298 265.387 405.754 267.648 408.399 270.464C411.13 273.195 413.135 276.181 414.415 279.424C415.78 282.581 416.548 285.696 416.719 288.768C416.804 289.536 416.548 290.176 415.951 290.688C415.439 291.115 414.799 291.328 414.031 291.328H411.471C410.788 291.328 410.191 291.157 409.679 290.816C409.167 290.389 408.826 289.664 408.655 288.64C407.034 281.045 403.962 275.84 399.439 273.024C395.002 270.208 389.37 268.8 382.543 268.8C374.778 268.8 368.591 271.019 363.983 275.456C359.46 279.808 357.028 286.805 356.687 296.448C356.431 303.445 356.431 310.613 356.687 317.952C357.028 327.595 359.46 334.635 363.983 339.072C368.591 343.424 374.778 345.6 382.543 345.6C389.37 345.6 395.002 344.192 399.439 341.376C403.962 338.56 407.034 333.355 408.655 325.76C408.826 324.736 409.167 324.053 409.679 323.712C410.191 323.285 410.788 323.072 411.471 323.072H414.031C414.799 323.072 415.439 323.328 415.951 323.84C416.548 324.267 416.804 324.864 416.719 325.632C416.548 328.704 415.78 331.861 414.415 335.104C413.135 338.261 411.13 341.248 408.399 344.064C405.754 346.795 402.298 349.013 398.031 350.72C393.764 352.427 388.602 353.28 382.543 353.28ZM456.75 352C455.641 352 454.745 351.744 454.062 351.232C453.379 350.72 452.825 349.952 452.398 348.928L422.702 266.368C422.531 265.856 422.446 265.387 422.446 264.96C422.446 264.277 422.702 263.68 423.214 263.168C423.726 262.656 424.323 262.4 425.006 262.4H427.694C428.547 262.4 429.187 262.656 429.614 263.168C430.126 263.595 430.425 263.979 430.51 264.32L458.542 342.656L486.574 264.32C486.745 263.979 487.043 263.595 487.47 263.168C487.897 262.656 488.537 262.4 489.39 262.4H492.078C492.761 262.4 493.358 262.656 493.87 263.168C494.382 263.68 494.638 264.277 494.638 264.96C494.638 265.387 494.553 265.856 494.382 266.368L464.686 348.928C464.345 349.952 463.833 350.72 463.15 351.232C462.467 351.744 461.529 352 460.334 352H456.75Z" fill="black"/>
<path d="M336.42 85.1612C311.441 97.7355 288.666 114.039 267.756 134.349C262.952 139.003 250.519 152.563 246.394 157.648C229.355 178.636 216.159 200.086 206.184 223.078C202.257 232.169 200.844 235.991 201.013 237.224C201.494 240.429 204.969 241.785 206.947 239.535C207.343 239.073 208.502 236.7 209.491 234.234C210.508 231.769 212.288 227.577 213.446 224.896L215.594 220.057H218.73C239.414 220.057 266.541 206.127 291.774 182.519C296.776 177.835 304.49 169.914 305.337 168.589C306.468 166.802 306.863 165.322 306.892 162.733C306.892 159.806 305.959 157.525 303.67 154.813C302.794 153.796 302.088 152.902 302.088 152.84C302.088 152.779 304.97 152.717 308.53 152.686C315.651 152.655 317.516 152.378 320.087 151.022C322.094 149.943 322.687 149.204 325.484 144.18C338.2 121.405 345.377 101.742 345.434 89.5376C345.462 85.5311 345.236 84.6989 343.767 83.6511C342.212 82.5416 341.252 82.7265 336.42 85.1612ZM337.72 95.3008C335.798 106.334 328.31 124.487 318.985 140.698C317.827 142.701 316.923 143.934 316.358 144.242C315.651 144.642 313.419 144.704 301.947 144.766C288.496 144.797 285.897 144.981 285.36 145.875C285.247 146.091 285.134 146.707 285.134 147.262C285.134 148.711 287.281 150.96 292.763 155.244C298.895 160.021 300.506 162.055 299.517 163.843C298.584 165.476 287.366 176.479 280.754 182.18C260.353 199.84 239.019 210.75 222.573 211.983C220.934 212.106 219.578 212.168 219.578 212.106C219.578 211.829 224.241 203.292 226.868 198.823C246.309 165.415 274.029 135.119 305.705 112.683C309.463 110.032 316.301 105.533 320.737 102.759C324.185 100.633 337.804 93.1126 337.946 93.2359C338.002 93.3284 337.889 94.2529 337.72 95.3008Z" fill="black"/>
</svg>
