<?xml version="1.0" standalone="no"?>
<!DOCTYPE svg PUBLIC "-//W3C//DTD SVG 20010904//EN"
 "http://www.w3.org/TR/2001/REC-SVG-20010904/DTD/svg10.dtd">
<svg version="1.0" xmlns="http://www.w3.org/2000/svg"
 width="512.000000pt" height="512.000000pt" viewBox="0 0 512.000000 512.000000"
 preserveAspectRatio="xMidYMid meet">

<g transform="translate(0.000000,512.000000) scale(0.100000,-0.100000)"
fill="#6366F1" stroke="none">
<path d="M4795 5047 c-884 -408 -1690 -937 -2430 -1596 -170 -151 -610 -591
-756 -756 -603 -681 -1070 -1377 -1423 -2123 -139 -295 -189 -419 -183 -459
17 -104 140 -148 210 -75 14 15 55 92 90 172 36 80 99 216 140 303 l76 157
111 0 c732 0 1692 452 2585 1218 177 152 450 409 480 452 40 58 54 106 55 190
0 95 -33 169 -114 257 -31 33 -56 62 -56 64 0 2 102 4 228 5 252 1 318 10 409
54 71 35 92 59 191 222 450 739 704 1377 706 1773 1 130 -7 157 -59 191 -55
36 -89 30 -260 -49z m46 -329 c-68 -358 -333 -947 -663 -1473 -41 -65 -73
-105 -93 -115 -25 -13 -104 -15 -510 -17 -476 -1 -568 -7 -587 -36 -4 -7 -8
-27 -8 -45 0 -47 76 -120 270 -259 217 -155 274 -221 239 -279 -33 -53 -430
-410 -664 -595 -722 -573 -1477 -927 -2059 -967 -58 -4 -106 -6 -106 -4 0 9
165 286 258 431 688 1084 1669 2067 2790 2795 133 86 375 232 532 322 122 69
604 313 609 309 2 -3 -2 -33 -8 -67z"/>
</g>
</svg>
