<svg width="535" height="518" viewBox="0 0 535 518" fill="none" xmlns="http://www.w3.org/2000/svg">
<path d="M36.3704 326.666C18.9492 264.971 25.9944 198.934 56.0393 142.303C86.0843 85.6714 136.814 42.8104 197.666 22.6426C258.519 2.47478 324.805 6.55434 382.726 34.032C440.646 61.5096 485.737 110.268 508.611 170.156" stroke="white" stroke-width="20"/>
<path d="M50.878 441.28C42.942 441.28 36.286 440.128 30.91 437.824C25.6193 435.435 21.566 432.363 18.75 428.608C16.0193 424.768 14.5687 420.757 14.398 416.576C14.398 415.808 14.654 415.168 15.166 414.656C15.678 414.144 16.318 413.888 17.086 413.888H28.478C29.5873 413.888 30.398 414.144 30.91 414.656C31.5073 415.083 32.0193 415.637 32.446 416.32C32.958 417.941 33.9393 419.563 35.39 421.184C36.8407 422.72 38.8033 424 41.278 425.024C43.838 426.048 47.038 426.56 50.878 426.56C57.022 426.56 61.5873 425.536 64.574 423.488C67.646 421.44 69.182 418.667 69.182 415.168C69.182 412.693 68.3713 410.731 66.75 409.28C65.1287 407.744 62.6113 406.379 59.198 405.184C55.87 403.904 51.4327 402.581 45.886 401.216C39.486 399.68 34.11 397.845 29.758 395.712C25.4913 393.493 22.2487 390.72 20.03 387.392C17.8967 384.064 16.83 379.84 16.83 374.72C16.83 369.771 18.1527 365.376 20.798 361.536C23.5287 357.696 27.3687 354.667 32.318 352.448C37.3527 350.229 43.326 349.12 50.238 349.12C55.7847 349.12 60.6913 349.888 64.958 351.424C69.2247 352.875 72.766 354.837 75.582 357.312C78.398 359.701 80.5313 362.304 81.982 365.12C83.518 367.851 84.3287 370.539 84.414 373.184C84.414 373.867 84.158 374.507 83.646 375.104C83.2193 375.616 82.5793 375.872 81.726 375.872H69.822C69.1393 375.872 68.4567 375.701 67.774 375.36C67.0913 375.019 66.5367 374.379 66.11 373.44C65.598 370.795 63.934 368.533 61.118 366.656C58.302 364.779 54.6753 363.84 50.238 363.84C45.63 363.84 41.918 364.693 39.102 366.4C36.286 368.107 34.878 370.752 34.878 374.336C34.878 376.725 35.5607 378.731 36.926 380.352C38.3767 381.888 40.638 383.253 43.71 384.448C46.8673 385.643 51.006 386.923 56.126 388.288C63.3793 389.909 69.31 391.787 73.918 393.92C78.526 396.053 81.8967 398.784 84.03 402.112C86.1633 405.355 87.23 409.493 87.23 414.528C87.23 420.16 85.694 424.981 82.622 428.992C79.6353 432.917 75.4113 435.947 69.95 438.08C64.4887 440.213 58.1313 441.28 50.878 441.28ZM113.419 440C112.224 440 111.328 439.701 110.731 439.104C110.134 438.507 109.622 437.739 109.195 436.8L90.891 377.408C90.8057 376.981 90.763 376.597 90.763 376.256C90.763 375.488 91.019 374.848 91.531 374.336C92.1283 373.739 92.7683 373.44 93.451 373.44H102.923C103.947 373.44 104.758 373.739 105.355 374.336C105.952 374.848 106.294 375.36 106.379 375.872L118.923 418.24L132.235 376.256C132.406 375.659 132.79 375.061 133.387 374.464C133.984 373.781 134.88 373.44 136.075 373.44H142.475C143.67 373.44 144.566 373.781 145.163 374.464C145.76 375.061 146.144 375.659 146.315 376.256L159.627 418.24L172.171 375.872C172.256 375.36 172.555 374.848 173.067 374.336C173.664 373.739 174.475 373.44 175.499 373.44H184.971C185.739 373.44 186.379 373.739 186.891 374.336C187.488 374.848 187.787 375.488 187.787 376.256C187.787 376.597 187.702 376.981 187.531 377.408L169.227 436.8C168.971 437.739 168.502 438.507 167.819 439.104C167.222 439.701 166.326 440 165.131 440H156.811C155.616 440 154.678 439.701 153.995 439.104C153.312 438.507 152.843 437.739 152.587 436.8L139.275 396.352L125.963 436.8C125.622 437.739 125.11 438.507 124.427 439.104C123.83 439.701 122.891 440 121.611 440H113.419ZM198.195 440C197.342 440 196.616 439.701 196.019 439.104C195.422 438.507 195.123 437.781 195.123 436.928V376.512C195.123 375.659 195.422 374.933 196.019 374.336C196.616 373.739 197.342 373.44 198.195 373.44H208.819C209.758 373.44 210.483 373.739 210.995 374.336C211.592 374.933 211.891 375.659 211.891 376.512V436.928C211.891 437.781 211.592 438.507 210.995 439.104C210.483 439.701 209.758 440 208.819 440H198.195ZM197.683 362.432C196.744 362.432 195.976 362.176 195.379 361.664C194.867 361.067 194.611 360.299 194.611 359.36V350.144C194.611 349.291 194.867 348.565 195.379 347.968C195.976 347.371 196.744 347.072 197.683 347.072H209.331C210.27 347.072 211.038 347.371 211.635 347.968C212.232 348.565 212.531 349.291 212.531 350.144V359.36C212.531 360.299 212.232 361.067 211.635 361.664C211.038 362.176 210.27 362.432 209.331 362.432H197.683ZM239.113 440C238.26 440 237.534 439.701 236.937 439.104C236.34 438.507 236.041 437.781 236.041 436.928V387.008H225.673C224.82 387.008 224.094 386.709 223.497 386.112C222.9 385.515 222.601 384.789 222.601 383.936V376.512C222.601 375.659 222.9 374.933 223.497 374.336C224.094 373.739 224.82 373.44 225.673 373.44H236.041V368.192C236.041 363.072 236.98 358.848 238.857 355.52C240.734 352.107 243.508 349.547 247.177 347.84C250.846 346.133 255.497 345.28 261.129 345.28H269.833C270.772 345.28 271.497 345.579 272.009 346.176C272.606 346.773 272.905 347.499 272.905 348.352V355.776C272.905 356.629 272.606 357.355 272.009 357.952C271.497 358.549 270.772 358.848 269.833 358.848H261.641C258.228 358.848 255.881 359.701 254.601 361.408C253.321 363.115 252.681 365.589 252.681 368.832V373.44H268.553C269.492 373.44 270.217 373.739 270.729 374.336C271.326 374.933 271.625 375.659 271.625 376.512V383.936C271.625 384.789 271.326 385.515 270.729 386.112C270.217 386.709 269.492 387.008 268.553 387.008H252.681V436.928C252.681 437.781 252.382 438.507 251.785 439.104C251.188 439.701 250.462 440 249.609 440H239.113ZM311.953 440C306.833 440 302.524 439.104 299.025 437.312C295.526 435.52 292.924 432.875 291.217 429.376C289.51 425.792 288.657 421.355 288.657 416.064V387.008H278.545C277.692 387.008 276.966 386.709 276.369 386.112C275.772 385.515 275.473 384.789 275.473 383.936V376.512C275.473 375.659 275.772 374.933 276.369 374.336C276.966 373.739 277.692 373.44 278.545 373.44H288.657V352.192C288.657 351.339 288.913 350.613 289.425 350.016C290.022 349.419 290.79 349.12 291.729 349.12H302.097C302.95 349.12 303.676 349.419 304.273 350.016C304.87 350.613 305.169 351.339 305.169 352.192V373.44H321.169C322.022 373.44 322.748 373.739 323.345 374.336C323.942 374.933 324.241 375.659 324.241 376.512V383.936C324.241 384.789 323.942 385.515 323.345 386.112C322.748 386.709 322.022 387.008 321.169 387.008H305.169V414.784C305.169 418.283 305.766 421.013 306.961 422.976C308.241 424.939 310.417 425.92 313.489 425.92H322.321C323.174 425.92 323.9 426.219 324.497 426.816C325.094 427.413 325.393 428.139 325.393 428.992V436.928C325.393 437.781 325.094 438.507 324.497 439.104C323.9 439.701 323.174 440 322.321 440H311.953ZM402.094 441.28C394.158 441.28 387.417 439.915 381.87 437.184C376.409 434.368 372.227 430.4 369.326 425.28C366.425 420.075 364.803 413.845 364.462 406.592C364.377 403.093 364.334 399.339 364.334 395.328C364.334 391.317 364.377 387.477 364.462 383.808C364.803 376.64 366.425 370.453 369.326 365.248C372.313 360.043 376.537 356.075 381.998 353.344C387.545 350.528 394.243 349.12 402.094 349.12C407.897 349.12 413.102 349.888 417.71 351.424C422.318 352.96 426.243 355.093 429.486 357.824C432.729 360.469 435.246 363.584 437.038 367.168C438.83 370.752 439.769 374.635 439.854 378.816C439.939 379.584 439.683 380.224 439.086 380.736C438.574 381.248 437.934 381.504 437.166 381.504H425.006C424.067 381.504 423.299 381.291 422.702 380.864C422.105 380.352 421.678 379.541 421.422 378.432C420.057 372.8 417.71 368.96 414.382 366.912C411.054 364.864 406.915 363.84 401.966 363.84C396.249 363.84 391.683 365.461 388.27 368.704C384.857 371.861 383.022 377.109 382.766 384.448C382.51 391.445 382.51 398.613 382.766 405.952C383.022 413.291 384.857 418.581 388.27 421.824C391.683 424.981 396.249 426.56 401.966 426.56C406.915 426.56 411.054 425.536 414.382 423.488C417.71 421.355 420.057 417.515 421.422 411.968C421.678 410.773 422.105 409.963 422.702 409.536C423.299 409.109 424.067 408.896 425.006 408.896H437.166C437.934 408.896 438.574 409.152 439.086 409.664C439.683 410.176 439.939 410.816 439.854 411.584C439.769 415.765 438.83 419.648 437.038 423.232C435.246 426.816 432.729 429.973 429.486 432.704C426.243 435.349 422.318 437.44 417.71 438.976C413.102 440.512 407.897 441.28 402.094 441.28ZM475.056 440C473.691 440 472.624 439.659 471.856 438.976C471.088 438.293 470.533 437.44 470.192 436.416L442.8 354.24C442.629 353.813 442.544 353.429 442.544 353.088C442.544 352.32 442.8 351.68 443.312 351.168C443.824 350.656 444.464 350.4 445.232 350.4H456.496C457.691 350.4 458.587 350.741 459.184 351.424C459.867 352.021 460.293 352.619 460.464 353.216L482.096 419.136L503.6 353.216C503.856 352.619 504.283 352.021 504.88 351.424C505.563 350.741 506.501 350.4 507.696 350.4H518.96C519.643 350.4 520.24 350.656 520.752 351.168C521.349 351.68 521.648 352.32 521.648 353.088C521.648 353.429 521.563 353.813 521.392 354.24L494 436.416C493.659 437.44 493.104 438.293 492.336 438.976C491.568 439.659 490.501 440 489.136 440H475.056Z" fill="white"/>
<path fill-rule="evenodd" clip-rule="evenodd" d="M337.09 182.968C336.944 183.497 336.791 184.033 336.631 184.575C335.831 187.292 334.865 190.158 333.739 193.157C333.435 193.967 333.119 194.786 332.791 195.615C329.488 203.978 325.009 213.286 319.484 223.18C319.448 223.245 319.412 223.31 319.377 223.374C319.374 223.379 319.371 223.384 319.368 223.389C318.754 224.489 318.248 225.378 317.81 226.106C317.389 226.806 317.03 227.358 316.697 227.808C315.879 228.915 315.219 229.406 314.176 229.974C314.147 229.99 314.117 230.006 314.087 230.022C314.079 230.026 314.071 230.031 314.062 230.035C313.382 230.393 312.751 230.674 312.057 230.896C310.138 231.509 307.742 231.664 302.53 231.686C301.693 231.694 300.893 231.703 300.159 231.713C300.142 231.713 300.125 231.713 300.108 231.714C299.793 231.718 299.49 231.723 299.202 231.728C297.335 231.759 296.088 231.8 296.088 231.84C296.088 231.902 296.794 232.796 297.67 233.813C297.821 233.991 297.966 234.168 298.105 234.343C300.078 236.828 300.892 238.998 300.892 241.733C300.879 242.923 300.788 243.878 300.584 244.737C300.443 245.33 300.249 245.877 299.988 246.423C299.974 246.453 299.959 246.483 299.945 246.513C299.771 246.867 299.57 247.221 299.337 247.589C298.49 248.914 290.776 256.835 285.774 261.519C283.775 263.39 281.764 265.199 279.745 266.946C279.741 266.949 279.738 266.953 279.734 266.956C264.883 279.803 249.614 289.249 235.577 294.452C235.125 294.62 234.674 294.783 234.224 294.942C231.261 295.988 228.355 296.842 225.523 297.495C222.656 298.157 219.865 298.612 217.165 298.854C217.165 298.854 217.164 298.854 217.163 298.854C215.656 298.989 214.178 299.057 212.73 299.057H209.594L207.446 303.896C207.296 304.244 207.136 304.617 206.968 305.008C206.966 305.011 206.965 305.015 206.963 305.018C206.286 306.594 205.49 308.465 204.77 310.172C204.29 311.311 203.844 312.377 203.491 313.234C203.239 313.862 202.976 314.483 202.718 315.069C202.703 315.103 202.688 315.137 202.673 315.17C201.933 316.839 201.236 318.197 200.947 318.535C198.969 320.785 195.494 319.429 195.013 316.224C194.954 315.79 195.09 315.035 195.463 313.842C195.474 313.809 195.484 313.776 195.495 313.742C195.766 312.89 196.153 311.822 196.67 310.498C196.679 310.476 196.687 310.453 196.696 310.431C197.202 309.14 197.83 307.608 198.594 305.798C199.07 304.669 199.6 303.432 200.184 302.078C200.345 301.707 200.507 301.337 200.669 300.968C200.679 300.945 200.689 300.923 200.698 300.901C200.991 300.235 201.287 299.57 201.585 298.907C202.01 297.961 202.441 297.017 202.878 296.076C203.65 294.412 204.439 292.755 205.247 291.106C206.642 288.255 208.091 285.427 209.594 282.618C210.41 281.092 211.243 279.572 212.092 278.057C212.843 276.717 213.607 275.381 214.384 274.049C214.389 274.039 214.395 274.029 214.401 274.02C214.664 273.568 214.929 273.117 215.196 272.666C215.197 272.664 215.198 272.662 215.2 272.659C215.659 271.882 216.123 271.106 216.591 270.332C216.693 270.164 216.794 269.996 216.896 269.829C223.753 258.544 231.556 247.534 240.394 236.648C244.519 231.563 256.952 218.003 261.756 213.349C261.801 213.305 261.846 213.262 261.89 213.218C264.289 210.891 266.713 208.616 269.161 206.394C277.552 198.779 286.236 191.778 295.236 185.373C295.24 185.37 295.244 185.367 295.248 185.364C300.014 181.973 304.868 178.749 309.813 175.69C310.085 175.522 310.357 175.355 310.629 175.188C310.642 175.18 310.655 175.172 310.669 175.163C310.819 175.071 310.969 174.979 311.119 174.888C312.834 173.84 314.559 172.813 316.296 171.805C316.38 171.756 316.464 171.708 316.549 171.659C317.121 171.328 317.694 170.998 318.269 170.672C318.504 170.538 318.739 170.404 318.975 170.271C320.057 169.659 321.144 169.055 322.235 168.458C322.26 168.444 322.286 168.431 322.311 168.417C324.988 166.954 327.691 165.535 330.42 164.161C335.252 161.727 336.212 161.542 337.767 162.651C338.385 163.092 338.783 163.495 339.035 164.112C339.335 164.847 339.427 165.887 339.435 167.658C339.437 167.933 339.436 168.226 339.434 168.538C339.424 170.628 339.205 172.938 338.786 175.444C338.781 175.472 338.776 175.501 338.772 175.529C338.569 176.728 338.321 177.972 338.027 179.259C338.026 179.262 338.026 179.265 338.025 179.269C337.752 180.466 337.44 181.699 337.09 182.968ZM328.876 173.806C329.437 173.503 329.943 173.233 330.375 173.005C330.379 173.003 330.383 173.001 330.387 172.999C331.331 172.502 331.917 172.211 331.946 172.236C332.002 172.328 331.889 173.253 331.72 174.301C331.324 176.573 330.692 179.146 329.857 181.942C329.126 184.391 328.239 187.01 327.217 189.748C326.888 190.63 326.545 191.525 326.188 192.431C325.593 193.943 324.961 195.484 324.295 197.045C324.278 197.086 324.26 197.127 324.243 197.168C323.57 198.744 322.863 200.34 322.126 201.95C319.456 207.777 316.388 213.769 313.087 219.521C313.086 219.523 313.085 219.525 313.083 219.527C313.072 219.547 313.06 219.567 313.049 219.587C313.048 219.59 313.046 219.592 313.045 219.594C313.025 219.629 313.005 219.663 312.985 219.698C312.53 220.484 312.115 221.152 311.743 221.692C311.581 221.928 311.427 222.139 311.282 222.326C310.97 222.727 310.699 223.01 310.473 223.169C310.456 223.181 310.439 223.193 310.422 223.204C310.4 223.218 310.378 223.23 310.358 223.242C310.278 223.287 310.18 223.327 310.051 223.364C309.956 223.392 309.845 223.417 309.714 223.44C309.157 223.538 308.231 223.603 306.606 223.649C305.556 223.679 304.216 223.701 302.496 223.719C302.484 223.719 302.473 223.719 302.461 223.719C301.707 223.727 300.879 223.734 299.971 223.741C298.774 223.75 297.439 223.758 295.947 223.766C295.607 223.767 295.275 223.767 294.95 223.768C294.941 223.768 294.933 223.768 294.925 223.768C294.18 223.771 293.471 223.774 292.796 223.777C285.827 223.813 282.449 223.92 280.803 224.216C279.916 224.375 279.532 224.589 279.36 224.875C279.281 225.026 279.202 225.371 279.162 225.754C279.144 225.921 279.134 226.094 279.134 226.262C279.134 227.412 280.486 229.066 283.784 231.84C283.807 231.86 283.831 231.88 283.854 231.9C284.696 232.606 285.662 233.384 286.763 234.244C289.109 236.072 290.793 237.498 291.923 238.663C291.941 238.681 291.959 238.699 291.976 238.717C292.613 239.38 293.069 239.957 293.364 240.475C293.609 240.904 293.742 241.293 293.777 241.656C293.78 241.682 293.782 241.708 293.783 241.733C293.806 242.126 293.712 242.489 293.517 242.843C293.429 242.995 293.253 243.23 292.998 243.534C292.99 243.544 292.981 243.554 292.973 243.564C292.694 243.896 292.327 244.307 291.885 244.783C289.488 247.37 284.911 251.879 280.556 255.942C280.555 255.943 280.554 255.944 280.553 255.945C278.484 257.875 276.465 259.705 274.754 261.18C263.827 270.639 252.633 278.161 242.065 283.297C239.803 284.397 237.569 285.387 235.373 286.263C235.343 286.275 235.313 286.287 235.283 286.299C234.902 286.451 234.522 286.599 234.143 286.744C232.945 287.202 231.759 287.625 230.586 288.013C225.643 289.647 220.936 290.656 216.573 290.983C215.837 291.038 215.157 291.081 214.632 291.106C213.989 291.136 213.578 291.14 213.578 291.106C213.578 290.968 214.727 288.795 216.206 286.095C216.206 286.094 216.206 286.093 216.207 286.093C217.707 283.354 219.545 280.073 220.868 277.823C221.05 277.511 221.232 277.199 221.415 276.887C222.219 275.52 223.036 274.159 223.866 272.803C225.118 270.758 226.401 268.727 227.714 266.71C233.382 257.998 239.604 249.546 246.3 241.443C246.301 241.443 246.301 241.442 246.302 241.441C250.118 236.823 254.088 232.318 258.196 227.944C258.725 227.381 259.256 226.821 259.789 226.262C262.184 223.754 264.624 221.289 267.107 218.872C267.109 218.87 267.112 218.868 267.114 218.865C267.205 218.777 267.295 218.69 267.386 218.602C267.581 218.412 267.776 218.223 267.972 218.034C273.457 212.741 279.147 207.679 285.01 202.883C289.798 198.966 294.702 195.226 299.705 191.683C301.222 190.613 303.241 189.241 305.402 187.804C308.157 185.971 311.142 184.03 313.608 182.47C313.998 182.223 314.376 181.985 314.737 181.759C315.001 181.596 315.324 181.402 315.696 181.182C317.376 180.189 320.054 178.672 322.755 177.167C324.934 175.954 327.128 174.748 328.826 173.833C328.842 173.823 328.859 173.814 328.876 173.806Z" fill="white" stroke="white" stroke-width="7"/>
</svg>
